<svg fill="#2CBC6F" width="207pt" height="323pt" version="1.0" viewBox="0 0 207 323" xmlns="http://www.w3.org/2000/svg">
    <g transform="translate(0 323) scale(.1 -.1)">
        <path stroke="#0A3F23" stroke-width="33" d="m1698 3192c-22-47-90-128-151-181l-48-41h-480-481l-76 78c-42 42-88 99-102 125s-29 46-35 44c-15-5-27-78-20-127 17-124 76-231 163-295 26-19 123-65 217-102 184-74 267-121 310-177l27-36 45 51c51 56 151 109 334 177 58 22 124 51 147 66 110 69 182 187 190 312 5 74-3 144-16 144-4 0-15-17-24-38zm-563-421c-27-15-64-36-80-46l-31-18-79 46-80 47h160 160l-50-29z"/>
        <path stroke="#0A3F23" stroke-width="33" d="m306 2762c-3-5-14-33-25-63-136-373-153-846-44-1249 44-163 154-426 178-424 18 1 75 95 93 153 13 43 17 89 16 196-1 121-5 152-28 229-15 49-42 123-62 165-34 73-34 74-8 50 43-40 134-184 169-267 51-120 68-216 63-336-4-67-12-118-25-152l-20-52 36-6c47-8 219-7 249 0 27 8 27 21 7 140-44 251-166 535-315 732l-39 51 57 6c92 11 172 34 251 73 70 34 75 35 85 18 31-52 68-96 80-96 8 0 32 27 54 59l39 59 29-19c52-34 177-77 258-88 44-6 81-12 82-14 1-1-27-45-63-97-154-225-268-523-290-757l-6-62 37-7c39-7 252-1 261 7 2 3-5 34-17 69-26 85-28 236-4 335 24 96 114 276 178 357 29 36 54 65 56 64 1-2-11-34-29-72-119-266-123-546-11-705 15-21 31-39 35-39 15 0 104 202 147 330 63 191 91 360 97 580 6 206-4 329-43 520-29 145-81 310-100 317-8 3-43-18-78-47l-65-51 33-44c51-66 69-132 64-225-8-136-79-239-206-298-48-23-71-27-142-27-76 0-93 4-152 33-61 30-112 74-149 131l-15 24-37-51c-122-166-360-189-512-50-92 83-134 197-115 310 11 69 17 83 58 146 19 29 33 54 31 56-45 39-121 96-128 96-6 0-12-4-15-8z"/>
        <path stroke="#0A3F23" stroke-width="33" d="m500 2538c-57-99-19-229 84-293 96-59 230-30 290 63 44 67 42 75-18 104l-55 27-11-34c-15-44-44-65-93-65-80 0-125 91-76 154 12 15 20 29 18 30-6 5-108 56-112 56-2 0-14-19-27-42z"/>
        <path stroke="#0A3F23" stroke-width="33" d="m1465 2555c-22-14-44-27-50-28-5-2-2-13 8-25 10-11 21-39 24-61 5-35 2-44-25-71-55-55-151-32-167 40-4 17-9 30-11 30-15 0-104-52-104-61 0-24 42-89 76-117 106-87 261-55 328 69 25 44 28 59 24 118-2 49-9 75-26 99-13 17-26 32-30 32s-25-12-47-25z"/>
        <path stroke="#0A3F23" stroke-width="33" d="m88 775c-43-69-78-130-78-135 0-6 200-10 561-10h561l92-83c51-45 136-122 189-171l97-89 78 7c42 4 92 10 110 14l33 7-191 175c-105 96-207 190-228 208l-37 33 55-24c30-14 81-37 113-51 57-26 60-26 295-26h238l41 127c23 70 39 131 37 135-3 5-429 8-947 8h-942l-77-125z"/>
        <path stroke="#0A3F23" stroke-width="33" d="m585 468c83-90 233-247 334-351l105-108 155 156 156 156-100 94-100 95h-295-294l39-42z"/>
    </g>
</svg>